<?xml version="1.0" standalone="no"?>
<!DOCTYPE svg PUBLIC "-//W3C//DTD SVG 20010904//EN"
 "http://www.w3.org/TR/2001/REC-SVG-20010904/DTD/svg10.dtd">
<svg version="1.0" xmlns="http://www.w3.org/2000/svg"
 width="200.000000pt" height="200.000000pt" viewBox="0 0 200.000000 200.000000"
 preserveAspectRatio="xMidYMid meet">

<g transform="translate(0.000000,200.000000) scale(0.100000,-0.100000)"
fill="#000000" stroke="none">
<path d="M0 1000 l0 -1000 1000 0 1000 0 0 1000 0 1000 -1000 0 -1000 0 0
-1000z m1218 910 c149 -42 265 -113 375 -229 293 -311 295 -796 4 -1107 -105
-112 -250 -201 -389 -237 l-56 -15 5 77 c5 63 11 82 34 111 40 51 79 142 92
215 9 55 8 66 -7 90 -20 30 -25 30 -151 1 -89 -20 -161 -20 -250 0 -130 30
-131 30 -150 -6 -15 -30 -15 -38 -1 -101 17 -75 54 -155 96 -209 24 -30 29
-47 32 -107 l3 -72 -25 6 c-250 62 -444 215 -554 438 -58 117 -76 186 -83 321
-21 413 255 761 672 843 78 16 268 5 353 -19z m-291 -1150 c80 -10 205 1 272
25 l41 14 0 -38 c0 -42 -29 -134 -57 -181 l-17 -30 -11 42 c-10 42 -11 43 -50
41 -22 -1 -62 -2 -90 -3 -27 -2 -73 1 -102 5 -57 8 -58 7 -65 -70 -3 -28 -5
-26 -35 33 -34 68 -59 161 -50 186 6 14 10 14 49 0 24 -8 76 -19 115 -24z
m428 -600 c163 -12 270 -29 292 -46 17 -13 17 -15 0 -28 -43 -34 -304 -56
-646 -56 -360 0 -646 29 -658 66 -9 26 100 50 287 63 164 12 572 12 725 1z"/>
<path d="M575 1228 c-28 -16 -35 -28 -35 -64 0 -52 53 -83 99 -59 48 24 55 72
16 110 -26 27 -49 31 -80 13z"/>
<path d="M1357 1229 c-46 -27 -39 -110 11 -127 36 -12 77 3 91 34 16 37 14 52
-14 79 -25 26 -58 31 -88 14z"/>
</g>
</svg>
