<?xml version="1.0" standalone="no"?>
<!DOCTYPE svg PUBLIC "-//W3C//DTD SVG 20010904//EN"
 "http://www.w3.org/TR/2001/REC-SVG-20010904/DTD/svg10.dtd">
<svg version="1.0" xmlns="http://www.w3.org/2000/svg"
 width="400.000000pt" height="400.000000pt" viewBox="0 0 400.000000 400.000000"
 preserveAspectRatio="xMidYMid meet">

<g transform="translate(0.000000,400.000000) scale(0.100000,-0.100000)"
fill="#000000" stroke="none">
<path d="M0 2000 l0 -2000 2000 0 2000 0 0 2000 0 2000 -2000 0 -2000 0 0
-2000z m1841 1306 c170 -36 294 -140 355 -298 25 -63 29 -86 28 -168 -2 -129
-34 -211 -122 -310 l-63 -70 34 0 c44 0 292 19 334 26 26 4 33 10 38 37 4 18
10 46 15 62 82 288 80 263 20 314 -41 35 -51 48 -48 70 2 22 9 27 37 29 23 2
40 -3 56 -18 l22 -21 7 48 c3 26 9 87 13 136 7 95 15 110 60 105 l28 -3 3 -93
3 -93 61 56 c68 64 101 70 106 21 3 -21 -4 -37 -28 -61 l-31 -32 19 -44 c30
-71 34 -104 14 -131 -20 -25 -74 -212 -123 -418 -4 -19 -13 -57 -19 -83 -14
-56 -63 -111 -106 -120 -16 -4 -110 -11 -209 -17 -99 -6 -209 -14 -245 -18
l-65 -7 -3 -352 -2 -353 24 -47 c13 -27 64 -129 113 -228 l88 -180 5 -285 5
-285 22 -3 c29 -4 81 -56 89 -88 21 -83 -60 -147 -184 -147 -63 1 -78 4 -113
29 -22 15 -46 37 -52 48 -8 15 -14 120 -17 341 -3 217 -9 326 -17 340 -16 29
-63 131 -63 139 0 7 -39 89 -84 175 l-28 55 -24 -50 c-13 -27 -33 -74 -45
-104 -23 -60 -35 -90 -70 -165 -49 -106 -49 -105 -49 -427 l0 -306 -50 -37
c-47 -35 -56 -37 -123 -38 -78 0 -114 13 -160 58 -53 53 -21 149 58 175 l35
12 0 284 0 284 25 40 c14 22 25 43 25 46 0 7 101 218 143 299 19 36 21 61 25
307 3 159 1 268 -5 268 -5 0 -40 -34 -78 -75 -38 -41 -74 -75 -81 -75 -7 0
-19 -6 -26 -13 -7 -7 -55 -37 -106 -67 -52 -30 -121 -72 -155 -93 -34 -20 -71
-42 -82 -47 -11 -6 -31 -17 -45 -25 -81 -47 -180 13 -180 109 0 34 6 46 44 80
24 23 71 55 105 71 33 17 61 33 61 38 0 4 5 7 10 7 6 0 43 19 83 42 40 22 90
51 113 62 23 12 78 64 128 121 49 55 109 123 133 150 25 28 54 62 64 76 l19
27 -33 13 c-17 7 -34 15 -37 19 -3 3 -23 17 -45 32 -93 61 -150 138 -185 249
-38 123 -17 281 50 376 17 23 30 45 31 50 1 16 118 106 170 130 52 24 152 51
194 52 11 0 50 -6 86 -13z"/>
<path d="M2104 2927 c-34 -23 -85 -63 -115 -89 -61 -55 -58 -68 18 -75 46 -4
50 -2 110 51 39 36 64 67 68 86 7 30 -1 70 -13 70 -4 0 -34 -20 -68 -43z"/>
<path d="M1404 2782 c-17 -42 -17 -42 -1 -42 8 0 22 -17 33 -37 20 -38 21 -38
99 -47 44 -4 96 -8 115 -8 49 0 208 16 213 22 3 3 6 32 8 65 l4 60 -85 7 c-47
3 -149 8 -228 10 l-143 4 -15 -34z"/>
</g>
</svg>
